<svg xmlns="http://www.w3.org/2000/svg" xmlns:xlink="http://www.w3.org/1999/xlink" width="1920" zoomAndPan="magnify" viewBox="0 0 1440 468.749983" height="625" preserveAspectRatio="xMidYMid meet" version="1.0"><defs><g/><clipPath id="0f5d71caff"><path d="M 254.742188 166.972656 L 419.402344 166.972656 L 419.402344 448.390625 L 254.742188 448.390625 Z M 254.742188 166.972656 " clip-rule="nonzero"/></clipPath><clipPath id="53840e21c1"><path d="M 581.722656 77.367188 L 746.382812 77.367188 L 746.382812 242.027344 L 581.722656 242.027344 Z M 581.722656 77.367188 " clip-rule="nonzero"/></clipPath><clipPath id="058ae60e2d"><path d="M 664.054688 77.367188 C 618.582031 77.367188 581.722656 114.226562 581.722656 159.699219 C 581.722656 205.167969 618.582031 242.027344 664.054688 242.027344 C 709.523438 242.027344 746.382812 205.167969 746.382812 159.699219 C 746.382812 114.226562 709.523438 77.367188 664.054688 77.367188 Z M 664.054688 77.367188 " clip-rule="nonzero"/></clipPath><clipPath id="7af297215b"><path d="M 986.539062 187.082031 L 1151.199219 187.082031 L 1151.199219 358.613281 L 986.539062 358.613281 Z M 986.539062 187.082031 " clip-rule="nonzero"/></clipPath><clipPath id="49fafd8c5f"><path d="M 1339.613281 322.824219 L 1411.191406 322.824219 L 1411.191406 394.402344 L 1339.613281 394.402344 Z M 1339.613281 322.824219 " clip-rule="nonzero"/></clipPath><clipPath id="211485294a"><path d="M 1375.402344 322.824219 C 1355.636719 322.824219 1339.613281 338.847656 1339.613281 358.613281 C 1339.613281 378.378906 1355.636719 394.402344 1375.402344 394.402344 C 1395.167969 394.402344 1411.191406 378.378906 1411.191406 358.613281 C 1411.191406 338.847656 1395.167969 322.824219 1375.402344 322.824219 Z M 1375.402344 322.824219 " clip-rule="nonzero"/></clipPath><clipPath id="0a04d30576"><path d="M 87.171875 41.578125 L 158.753906 41.578125 L 158.753906 113.15625 L 87.171875 113.15625 Z M 87.171875 41.578125 " clip-rule="nonzero"/></clipPath><clipPath id="cfe6209638"><path d="M 122.964844 41.578125 C 103.199219 41.578125 87.171875 57.601562 87.171875 77.367188 C 87.171875 97.132812 103.199219 113.15625 122.964844 113.15625 C 142.730469 113.15625 158.753906 97.132812 158.753906 77.367188 C 158.753906 57.601562 142.730469 41.578125 122.964844 41.578125 Z M 122.964844 41.578125 " clip-rule="nonzero"/></clipPath></defs><g clip-path="url(#0f5d71caff)"><path fill="#3d5b5c" d="M 254.742188 166.972656 L 419.402344 166.972656 L 419.402344 448.695312 L 254.742188 448.695312 Z M 254.742188 166.972656 " fill-opacity="1" fill-rule="nonzero"/></g><g clip-path="url(#53840e21c1)"><g clip-path="url(#058ae60e2d)"><path fill="#cde990" d="M 581.722656 77.367188 L 746.382812 77.367188 L 746.382812 242.027344 L 581.722656 242.027344 Z M 581.722656 77.367188 " fill-opacity="1" fill-rule="nonzero"/></g></g><g clip-path="url(#7af297215b)"><path fill="#b9e185" d="M 986.539062 187.082031 L 1151.199219 187.082031 L 1151.199219 358.820312 L 986.539062 358.820312 Z M 986.539062 187.082031 " fill-opacity="1" fill-rule="nonzero"/></g><g fill="#000000" fill-opacity="1"><g transform="translate(-0.339908, 307.704542)"><g><path d="M 97.90625 3.203125 C 81.664062 3.203125 67.300781 -0.171875 54.8125 -6.921875 C 42.332031 -13.679688 32.585938 -23.609375 25.578125 -36.703125 C 18.578125 -49.796875 15.078125 -65.53125 15.078125 -83.90625 C 15.078125 -102.382812 18.578125 -118.171875 25.578125 -131.265625 C 32.585938 -144.359375 42.285156 -154.28125 54.671875 -161.03125 C 67.054688 -167.78125 81.21875 -171.15625 97.15625 -171.15625 C 132.582031 -171.15625 155.269531 -158.3125 165.21875 -132.625 L 136.28125 -111.921875 L 133.09375 -111.921875 C 129.632812 -119.835938 125.140625 -125.722656 119.609375 -129.578125 C 114.078125 -133.441406 106.59375 -135.375 97.15625 -135.375 C 84.96875 -135.375 75.472656 -131.160156 68.671875 -122.734375 C 61.867188 -114.304688 58.46875 -101.363281 58.46875 -83.90625 C 58.46875 -66.644531 61.921875 -53.773438 68.828125 -45.296875 C 75.734375 -36.828125 85.425781 -32.59375 97.90625 -32.59375 C 107.050781 -32.59375 114.796875 -35.050781 121.140625 -39.96875 C 127.484375 -44.894531 132.023438 -51.976562 134.765625 -61.21875 L 137.96875 -61.515625 L 167.953125 -45.078125 C 163.691406 -30.859375 155.800781 -19.253906 144.28125 -10.265625 C 132.757812 -1.285156 117.300781 3.203125 97.90625 3.203125 Z M 97.90625 3.203125 "/></g></g></g><g fill="#000000" fill-opacity="1"><g transform="translate(155.643023, 307.704542)"><g><path d="M 76.90625 3.203125 C 58.019531 3.203125 44.082031 -1.945312 35.09375 -12.25 C 26.113281 -22.5625 21.625 -37.359375 21.625 -56.640625 L 21.625 -167.953125 L 63.796875 -167.953125 L 63.796875 -61.96875 C 63.796875 -51.71875 66.003906 -44.234375 70.421875 -39.515625 C 74.835938 -34.796875 81.664062 -32.4375 90.90625 -32.4375 C 102.582031 -32.4375 111.664062 -36.265625 118.15625 -43.921875 C 124.65625 -51.585938 127.90625 -63.644531 127.90625 -80.09375 L 127.90625 -167.953125 L 170.09375 -167.953125 L 170.09375 0 L 129.59375 0 L 129.59375 -24.671875 L 126.390625 -25.4375 C 121.003906 -15.789062 114.425781 -8.601562 106.65625 -3.875 C 98.894531 0.84375 88.976562 3.203125 76.90625 3.203125 Z M 76.90625 3.203125 "/></g></g></g><g fill="#000000" fill-opacity="1"><g transform="translate(332.791971, 307.704542)"><g><path d="M 24.21875 68.0625 L 24.21875 -167.953125 L 66.390625 -167.953125 L 66.390625 -146.03125 L 69.59375 -145.421875 C 74.5625 -153.953125 81.207031 -160.375 89.53125 -164.6875 C 97.863281 -169 107.613281 -171.15625 118.78125 -171.15625 C 132.28125 -171.15625 144.078125 -167.957031 154.171875 -161.5625 C 164.273438 -155.164062 172.144531 -145.441406 177.78125 -132.390625 C 183.414062 -119.347656 186.234375 -103.1875 186.234375 -83.90625 C 186.234375 -64.71875 183.265625 -48.625 177.328125 -35.625 C 171.390625 -22.632812 163.140625 -12.914062 152.578125 -6.46875 C 142.023438 -0.0195312 129.84375 3.203125 116.03125 3.203125 C 105.570312 3.203125 96.535156 1.453125 88.921875 -2.046875 C 81.316406 -5.554688 74.875 -11.015625 69.59375 -18.421875 L 66.390625 -17.8125 L 66.390625 68.0625 Z M 104.3125 -32.59375 C 116.894531 -32.59375 126.4375 -36.703125 132.9375 -44.921875 C 139.4375 -53.140625 142.6875 -66.132812 142.6875 -83.90625 C 142.6875 -101.664062 139.4375 -114.679688 132.9375 -122.953125 C 126.4375 -131.234375 116.894531 -135.375 104.3125 -135.375 C 92.53125 -135.375 83.1875 -131.109375 76.28125 -122.578125 C 69.382812 -114.054688 65.9375 -101.164062 65.9375 -83.90625 C 65.9375 -66.75 69.382812 -53.90625 76.28125 -45.375 C 83.1875 -36.851562 92.53125 -32.59375 104.3125 -32.59375 Z M 104.3125 -32.59375 "/></g></g></g><g fill="#000000" fill-opacity="1"><g transform="translate(516.793258, 307.704542)"><g><path d="M 97.609375 3.203125 C 81.160156 3.203125 66.71875 -0.171875 54.28125 -6.921875 C 41.84375 -13.679688 32.195312 -23.582031 25.34375 -36.625 C 18.5 -49.664062 15.078125 -65.425781 15.078125 -83.90625 C 15.078125 -102.382812 18.5 -118.171875 25.34375 -131.265625 C 32.195312 -144.359375 41.84375 -154.28125 54.28125 -161.03125 C 66.71875 -167.78125 81.160156 -171.15625 97.609375 -171.15625 C 114.054688 -171.15625 128.492188 -167.78125 140.921875 -161.03125 C 153.359375 -154.28125 163.03125 -144.359375 169.9375 -131.265625 C 176.84375 -118.171875 180.296875 -102.382812 180.296875 -83.90625 C 180.296875 -65.425781 176.84375 -49.664062 169.9375 -36.625 C 163.03125 -23.582031 153.359375 -13.679688 140.921875 -6.921875 C 128.492188 -0.171875 114.054688 3.203125 97.609375 3.203125 Z M 97.609375 -32.59375 C 123.703125 -32.59375 136.75 -49.695312 136.75 -83.90625 C 136.75 -101.664062 133.394531 -114.679688 126.6875 -122.953125 C 119.988281 -131.234375 110.296875 -135.375 97.609375 -135.375 C 71.515625 -135.375 58.46875 -118.21875 58.46875 -83.90625 C 58.46875 -49.695312 71.515625 -32.59375 97.609375 -32.59375 Z M 97.609375 -32.59375 "/></g></g></g><g fill="#000000" fill-opacity="1"><g transform="translate(694.855864, 307.704542)"><g><path d="M 24.21875 0 L 24.21875 -167.953125 L 64.71875 -167.953125 L 64.71875 -143.296875 L 67.921875 -142.53125 C 78.367188 -161.613281 95.320312 -171.15625 118.78125 -171.15625 C 138.164062 -171.15625 152.398438 -165.875 161.484375 -155.3125 C 170.566406 -144.757812 175.109375 -129.382812 175.109375 -109.1875 L 175.109375 0 L 132.9375 0 L 132.9375 -104 C 132.9375 -115.164062 130.703125 -123.210938 126.234375 -128.140625 C 121.765625 -133.066406 114.609375 -135.53125 104.765625 -135.53125 C 92.679688 -135.53125 83.265625 -131.617188 76.515625 -123.796875 C 69.765625 -115.984375 66.390625 -103.703125 66.390625 -86.953125 L 66.390625 0 Z M 24.21875 0 "/></g></g></g><g fill="#000000" fill-opacity="1"><g transform="translate(874.441225, 307.704542)"><g><path d="M 165.984375 -74.46875 L 58.015625 -74.46875 C 59.234375 -59.84375 63.394531 -49.207031 70.5 -42.5625 C 77.601562 -35.914062 87.300781 -32.59375 99.59375 -32.59375 C 109.226562 -32.59375 117.039062 -34.390625 123.03125 -37.984375 C 129.019531 -41.585938 133.84375 -47.046875 137.5 -54.359375 L 140.703125 -54.359375 L 168.71875 -36.390625 C 163.238281 -24.617188 154.960938 -15.078125 143.890625 -7.765625 C 132.828125 -0.453125 118.0625 3.203125 99.59375 3.203125 C 82.226562 3.203125 67.222656 -0.09375 54.578125 -6.6875 C 41.941406 -13.289062 32.195312 -23.113281 25.34375 -36.15625 C 18.5 -49.207031 15.078125 -65.125 15.078125 -83.90625 C 15.078125 -102.988281 18.679688 -119.078125 25.890625 -132.171875 C 33.097656 -145.265625 42.84375 -155.035156 55.125 -161.484375 C 67.40625 -167.929688 81.210938 -171.15625 96.546875 -171.15625 C 120.296875 -171.15625 138.488281 -164.859375 151.125 -152.265625 C 163.769531 -139.679688 170.09375 -121.207031 170.09375 -96.84375 C 170.09375 -88.007812 169.785156 -81.160156 169.171875 -76.296875 Z M 129.734375 -101.71875 C 129.328125 -114.507812 126.359375 -123.820312 120.828125 -129.65625 C 115.296875 -135.5 107.203125 -138.421875 96.546875 -138.421875 C 75.222656 -138.421875 62.6875 -126.1875 58.9375 -101.71875 Z M 129.734375 -101.71875 "/></g></g></g><g fill="#000000" fill-opacity="1"><g transform="translate(1039.865101, 307.704542)"><g><path d="M 24.21875 0 L 24.21875 -167.953125 L 65.171875 -167.953125 L 65.171875 -142.984375 L 68.375 -142.375 C 72.4375 -151.71875 77.765625 -158.570312 84.359375 -162.9375 C 90.960938 -167.300781 98.984375 -169.484375 108.421875 -169.484375 C 117.960938 -169.484375 125.21875 -167.859375 130.1875 -164.609375 L 123.03125 -128.21875 L 119.84375 -127.609375 C 117.101562 -128.722656 114.460938 -129.53125 111.921875 -130.03125 C 109.378906 -130.539062 106.285156 -130.796875 102.640625 -130.796875 C 90.859375 -130.796875 81.867188 -126.660156 75.671875 -118.390625 C 69.484375 -110.117188 66.390625 -96.847656 66.390625 -78.578125 L 66.390625 0 Z M 24.21875 0 "/></g></g></g><g fill="#000000" fill-opacity="1"><g transform="translate(1154.429638, 307.704542)"><g><path d="M 65.484375 3.203125 C 54.722656 3.203125 45.378906 1.222656 37.453125 -2.734375 C 29.535156 -6.691406 23.445312 -12.503906 19.1875 -20.171875 C 14.925781 -27.835938 12.796875 -37.050781 12.796875 -47.8125 C 12.796875 -57.757812 14.925781 -66.109375 19.1875 -72.859375 C 23.445312 -79.609375 30.039062 -85.140625 38.96875 -89.453125 C 47.90625 -93.773438 59.582031 -97.101562 74 -99.4375 C 84.050781 -101.0625 91.691406 -102.835938 96.921875 -104.765625 C 102.148438 -106.691406 105.675781 -108.875 107.5 -111.3125 C 109.332031 -113.75 110.25 -116.847656 110.25 -120.609375 C 110.25 -125.984375 108.367188 -130.09375 104.609375 -132.9375 C 100.859375 -135.78125 94.617188 -137.203125 85.890625 -137.203125 C 76.546875 -137.203125 67.660156 -135.117188 59.234375 -130.953125 C 50.804688 -126.796875 43.5 -121.316406 37.3125 -114.515625 L 34.265625 -114.515625 L 16.59375 -141.15625 C 25.125 -150.601562 35.53125 -157.960938 47.8125 -163.234375 C 60.09375 -168.515625 73.492188 -171.15625 88.015625 -171.15625 C 110.242188 -171.15625 126.332031 -166.429688 136.28125 -156.984375 C 146.226562 -147.546875 151.203125 -134.148438 151.203125 -116.796875 L 151.203125 -43.859375 C 151.203125 -36.347656 154.503906 -32.59375 161.109375 -32.59375 C 163.640625 -32.59375 166.125 -33.046875 168.5625 -33.953125 L 170.703125 -33.34375 L 173.75 -3.953125 C 171.414062 -2.429688 168.164062 -1.1875 164 -0.21875 C 159.832031 0.738281 155.265625 1.21875 150.296875 1.21875 C 140.242188 1.21875 132.398438 -0.707031 126.765625 -4.5625 C 121.128906 -8.425781 117.09375 -14.46875 114.65625 -22.6875 L 111.46875 -23 C 103.238281 -5.53125 87.910156 3.203125 65.484375 3.203125 Z M 78.875 -28.328125 C 88.625 -28.328125 96.414062 -31.597656 102.25 -38.140625 C 108.09375 -44.691406 111.015625 -53.804688 111.015625 -65.484375 L 111.015625 -82.53125 L 108.109375 -83.140625 C 105.578125 -81.109375 102.253906 -79.40625 98.140625 -78.03125 C 94.023438 -76.664062 88.113281 -75.320312 80.40625 -74 C 71.269531 -72.476562 64.695312 -69.863281 60.6875 -66.15625 C 56.675781 -62.457031 54.671875 -57.207031 54.671875 -50.40625 C 54.671875 -43.195312 56.800781 -37.710938 61.0625 -33.953125 C 65.320312 -30.203125 71.257812 -28.328125 78.875 -28.328125 Z M 78.875 -28.328125 "/></g></g></g><g clip-path="url(#49fafd8c5f)"><g clip-path="url(#211485294a)"><path fill="#222e50" d="M 1339.613281 322.824219 L 1411.191406 322.824219 L 1411.191406 394.402344 L 1339.613281 394.402344 Z M 1339.613281 322.824219 " fill-opacity="1" fill-rule="nonzero"/></g></g><g clip-path="url(#0a04d30576)"><g clip-path="url(#cfe6209638)"><path fill="#8bb174" d="M 87.171875 41.578125 L 158.753906 41.578125 L 158.753906 113.15625 L 87.171875 113.15625 Z M 87.171875 41.578125 " fill-opacity="1" fill-rule="nonzero"/></g></g><g fill="#000000" fill-opacity="1"><g transform="translate(1387.761023, 310.955839)"><g><path d="M 0.6875 -18.125 C 0.6875 -15.0625 -0.078125 -12.378906 -1.609375 -10.078125 C -3.140625 -7.785156 -5.25 -6.007812 -7.9375 -4.75 C -10.625 -3.488281 -13.726562 -2.859375 -17.25 -2.859375 C -20.800781 -2.859375 -23.921875 -3.488281 -26.609375 -4.75 C -29.304688 -6.007812 -31.421875 -7.785156 -32.953125 -10.078125 C -34.484375 -12.378906 -35.25 -15.0625 -35.25 -18.125 C -35.25 -20.3125 -34.863281 -22.222656 -34.09375 -23.859375 C -33.332031 -25.492188 -31.875 -27.097656 -29.71875 -28.671875 L -47.34375 -28.671875 L -47.34375 -35.484375 L 0 -35.484375 L 0 -28.671875 L -4.90625 -28.671875 C -2.789062 -27.140625 -1.328125 -25.546875 -0.515625 -23.890625 C 0.285156 -22.234375 0.6875 -20.3125 0.6875 -18.125 Z M -5.28125 -19.359375 C -5.28125 -21.304688 -5.785156 -23.019531 -6.796875 -24.5 C -7.804688 -25.988281 -9.222656 -27.15625 -11.046875 -28 C -12.867188 -28.851562 -14.9375 -29.28125 -17.25 -29.28125 C -19.601562 -29.28125 -21.691406 -28.851562 -23.515625 -28 C -25.335938 -27.15625 -26.753906 -25.988281 -27.765625 -24.5 C -28.773438 -23.019531 -29.28125 -21.304688 -29.28125 -19.359375 C -29.28125 -17.367188 -28.765625 -15.648438 -27.734375 -14.203125 C -26.703125 -12.753906 -25.273438 -11.632812 -23.453125 -10.84375 C -21.628906 -10.0625 -19.5625 -9.671875 -17.25 -9.671875 C -14.976562 -9.671875 -12.929688 -10.0625 -11.109375 -10.84375 C -9.285156 -11.632812 -7.859375 -12.753906 -6.828125 -14.203125 C -5.796875 -15.648438 -5.28125 -17.367188 -5.28125 -19.359375 Z M -5.28125 -19.359375 "/></g></g></g><g fill="#000000" fill-opacity="1"><g transform="translate(1387.761023, 271.309171)"><g><path d="M 0.6875 -19.859375 C 0.6875 -16.460938 -0.0859375 -13.472656 -1.640625 -10.890625 C -3.191406 -8.304688 -5.3125 -6.289062 -8 -4.84375 C -10.6875 -3.394531 -13.726562 -2.671875 -17.125 -2.671875 C -19.4375 -2.671875 -21.664062 -3.03125 -23.8125 -3.75 C -25.96875 -4.476562 -27.90625 -5.554688 -29.625 -6.984375 C -31.34375 -8.410156 -32.707031 -10.175781 -33.71875 -12.28125 C -34.738281 -14.394531 -35.25 -16.859375 -35.25 -19.671875 C -35.25 -22.609375 -34.601562 -25.378906 -33.3125 -27.984375 C -32.03125 -30.585938 -30.097656 -32.695312 -27.515625 -34.3125 C -24.929688 -35.925781 -21.675781 -36.734375 -17.75 -36.734375 L -15.890625 -36.734375 L -15.890625 -9.625 C -14.523438 -9.738281 -13.28125 -10.066406 -12.15625 -10.609375 C -10.050781 -11.429688 -8.378906 -12.671875 -7.140625 -14.328125 C -5.898438 -15.984375 -5.28125 -17.867188 -5.28125 -19.984375 C -5.28125 -22.296875 -5.878906 -24.21875 -7.078125 -25.75 C -8.273438 -27.28125 -9.703125 -28.375 -11.359375 -29.03125 L -11.359375 -36.171875 C -9.160156 -35.472656 -7.148438 -34.410156 -5.328125 -32.984375 C -3.515625 -31.554688 -2.054688 -29.753906 -0.953125 -27.578125 C 0.140625 -25.410156 0.6875 -22.835938 0.6875 -19.859375 Z M -21.40625 -10.046875 L -21.40625 -29.65625 C -21.90625 -29.613281 -22.441406 -29.507812 -23.015625 -29.34375 C -23.597656 -29.175781 -24.15625 -28.929688 -24.6875 -28.609375 C -26.300781 -27.773438 -27.519531 -26.570312 -28.34375 -25 C -29.175781 -23.425781 -29.59375 -21.734375 -29.59375 -19.921875 C -29.59375 -15.910156 -27.957031 -13.015625 -24.6875 -11.234375 C -24.15625 -10.898438 -23.585938 -10.640625 -22.984375 -10.453125 C -22.390625 -10.265625 -21.863281 -10.128906 -21.40625 -10.046875 Z M -21.40625 -10.046875 "/></g></g></g><g fill="#000000" fill-opacity="1"><g transform="translate(1387.761023, 231.910679)"><g><path d="M 0.6875 -13.953125 C 0.6875 -10.609375 -0.203125 -7.890625 -1.984375 -5.796875 C -3.765625 -3.710938 -6.226562 -2.671875 -9.375 -2.671875 C -11.019531 -2.671875 -12.460938 -3 -13.703125 -3.65625 C -14.953125 -4.320312 -16.007812 -5.234375 -16.875 -6.390625 C -17.625 -7.421875 -18.242188 -8.609375 -18.734375 -9.953125 C -19.234375 -11.296875 -19.628906 -12.773438 -19.921875 -14.390625 L -22.09375 -25.6875 C -24.488281 -25.644531 -26.328125 -25.003906 -27.609375 -23.765625 C -28.972656 -22.398438 -29.65625 -20.578125 -29.65625 -18.296875 C -29.65625 -16.441406 -29.140625 -14.820312 -28.109375 -13.4375 C -27.078125 -12.050781 -25.648438 -11.171875 -23.828125 -10.796875 L -23.828125 -4.03125 C -26.390625 -4.445312 -28.507812 -5.359375 -30.1875 -6.765625 C -31.863281 -8.171875 -33.125 -9.894531 -33.96875 -11.9375 C -34.820312 -13.988281 -35.25 -16.128906 -35.25 -18.359375 C -35.25 -20.347656 -34.957031 -22.238281 -34.375 -24.03125 C -33.789062 -25.832031 -32.898438 -27.378906 -31.703125 -28.671875 C -30.546875 -29.953125 -29.210938 -30.847656 -27.703125 -31.359375 C -26.191406 -31.878906 -24.691406 -32.191406 -23.203125 -32.296875 C -21.710938 -32.398438 -20.367188 -32.453125 -19.171875 -32.453125 L 0 -32.453125 L 0 -25.625 L -5.09375 -25.625 C -4.257812 -25.125 -3.53125 -24.570312 -2.90625 -23.96875 C -2.289062 -23.375 -1.753906 -22.726562 -1.296875 -22.03125 C -0.597656 -20.90625 -0.09375 -19.671875 0.21875 -18.328125 C 0.53125 -16.984375 0.6875 -15.523438 0.6875 -13.953125 Z M -4.96875 -15.328125 C -4.96875 -17.148438 -5.335938 -18.804688 -6.078125 -20.296875 C -7.148438 -22.441406 -8.578125 -23.882812 -10.359375 -24.625 C -12.140625 -25.375 -14.3125 -25.75 -16.875 -25.75 L -14.953125 -16.015625 C -14.453125 -13.609375 -13.707031 -11.867188 -12.71875 -10.796875 C -11.851562 -9.929688 -10.800781 -9.5 -9.5625 -9.5 C -8.113281 -9.5 -6.984375 -10.035156 -6.171875 -11.109375 C -5.367188 -12.179688 -4.96875 -13.585938 -4.96875 -15.328125 Z M -4.96875 -15.328125 "/></g></g></g><g fill="#000000" fill-opacity="1"><g transform="translate(1387.761023, 195.676474)"><g><path d="M 0 -16.1875 L 0 -12.09375 C 0 -9.53125 -0.585938 -7.535156 -1.765625 -6.109375 C -2.941406 -4.679688 -5.0625 -3.96875 -8.125 -3.96875 L -47.34375 -3.96875 L -47.34375 -10.796875 L -9.796875 -10.796875 C -8.429688 -10.796875 -7.414062 -11.007812 -6.75 -11.4375 C -6.09375 -11.875 -5.765625 -12.816406 -5.765625 -14.265625 L -5.765625 -16.1875 Z M 0 -16.1875 "/></g></g></g><g fill="#000000" fill-opacity="1"><g transform="translate(1387.761023, 177.745516)"><g><path d="M 0.6875 -18.546875 C 0.6875 -15.773438 0.234375 -13.238281 -0.671875 -10.9375 C -1.585938 -8.644531 -2.9375 -6.753906 -4.71875 -5.265625 C -6.5 -3.785156 -8.710938 -2.835938 -11.359375 -2.421875 L -11.359375 -9.3125 C -9.367188 -9.800781 -7.804688 -10.8125 -6.671875 -12.34375 C -5.535156 -13.875 -4.96875 -15.941406 -4.96875 -18.546875 C -4.96875 -20.617188 -5.359375 -22.304688 -6.140625 -23.609375 C -6.929688 -24.910156 -8.09375 -25.5625 -9.625 -25.5625 C -10.863281 -25.5625 -11.820312 -25.132812 -12.5 -24.28125 C -13.1875 -23.4375 -13.722656 -22.34375 -14.109375 -21 C -14.503906 -19.65625 -14.847656 -18.195312 -15.140625 -16.625 C -15.429688 -15.132812 -15.769531 -13.632812 -16.15625 -12.125 C -16.550781 -10.613281 -17.085938 -9.226562 -17.765625 -7.96875 C -18.453125 -6.707031 -19.382812 -5.703125 -20.5625 -4.953125 C -21.75 -4.210938 -23.269531 -3.84375 -25.125 -3.84375 C -27.40625 -3.84375 -29.289062 -4.429688 -30.78125 -5.609375 C -32.269531 -6.796875 -33.382812 -8.367188 -34.125 -10.328125 C -34.875 -12.296875 -35.25 -14.457031 -35.25 -16.8125 C -35.25 -20.695312 -34.242188 -23.941406 -32.234375 -26.546875 C -30.222656 -29.160156 -27.441406 -30.773438 -23.890625 -31.390625 L -23.890625 -25 C -25.910156 -24.46875 -27.375 -23.46875 -28.28125 -22 C -29.195312 -20.53125 -29.65625 -18.800781 -29.65625 -16.8125 C -29.65625 -14.832031 -29.28125 -13.28125 -28.53125 -12.15625 C -27.789062 -11.039062 -26.78125 -10.484375 -25.5 -10.484375 C -24.425781 -10.484375 -23.578125 -10.882812 -22.953125 -11.6875 C -22.335938 -12.5 -21.863281 -13.546875 -21.53125 -14.828125 C -21.195312 -16.109375 -20.882812 -17.492188 -20.59375 -18.984375 C -20.3125 -20.515625 -19.972656 -22.066406 -19.578125 -23.640625 C -19.179688 -25.210938 -18.617188 -26.648438 -17.890625 -27.953125 C -17.171875 -29.253906 -16.203125 -30.304688 -14.984375 -31.109375 C -13.765625 -31.921875 -12.160156 -32.328125 -10.171875 -32.328125 C -6.910156 -32.328125 -4.285156 -31.113281 -2.296875 -28.6875 C -0.304688 -26.269531 0.6875 -22.890625 0.6875 -18.546875 Z M 0.6875 -18.546875 "/></g></g></g></svg>